<svg width="48" height="48" viewBox="0 0 48 48" fill="none" xmlns="http://www.w3.org/2000/svg">
<g clip-path="url(#clip0_49_797)">
<path fill-rule="evenodd" clip-rule="evenodd" d="M29.9408 8.48506C30.2087 7.41347 29.5571 6.3276 28.4855 6.0597C27.414 5.7918 26.3281 6.44332 26.0602 7.51491L18.0602 39.5149C17.7923 40.5865 18.4438 41.6724 19.5154 41.9403C20.587 42.2082 21.6729 41.5566 21.9408 40.4851L29.9408 8.48506ZM15.4142 14.5858C16.1953 15.3668 16.1953 16.6332 15.4142 17.4142L8.82843 24L15.4142 30.5858C16.1953 31.3668 16.1953 32.6332 15.4142 33.4142C14.6332 34.1953 13.3668 34.1953 12.5858 33.4142L4.58579 25.4142C3.80474 24.6332 3.80474 23.3668 4.58579 22.5858L12.5858 14.5858C13.3668 13.8047 14.6332 13.8047 15.4142 14.5858ZM32.5858 14.5858C33.3668 13.8047 34.6332 13.8047 35.4142 14.5858L43.4142 22.5858C44.1953 23.3668 44.1953 24.6332 43.4142 25.4142L35.4142 33.4142C34.6332 34.1953 33.3668 34.1953 32.5858 33.4142C31.8047 32.6332 31.8047 31.3668 32.5858 30.5858L39.1716 24L32.5858 17.4142C31.8047 16.6332 31.8047 15.3668 32.5858 14.5858Z" fill="url(#paint0_linear_49_797)"/>
</g>
<defs>
<linearGradient id="paint0_linear_49_797" x1="4" y1="24" x2="44" y2="24" gradientUnits="userSpaceOnUse">
<stop stop-color="#F1B2A8"/>
<stop offset="0.475" stop-color="#EC57A8"/>
<stop offset="1" stop-color="#5B5AF7"/>
</linearGradient>
<clipPath id="clip0_49_797">
<rect width="48" height="48" fill="white"/>
</clipPath>
</defs>
</svg>
