<svg width="83" height="82" viewBox="0 0 83 82" fill="none" xmlns="http://www.w3.org/2000/svg">
<rect x="2" y="1.5" width="79" height="79" rx="22.5" fill="#2C2C2C"/>
<rect x="2" y="1.5" width="79" height="79" rx="22.5" stroke="url(#paint0_linear_49_774)" stroke-width="3"/>
<path fill-rule="evenodd" clip-rule="evenodd" d="M39.8574 24.2744C39.873 24.2588 39.8942 24.25 39.9163 24.25H58.6663C58.6884 24.25 58.7096 24.2588 58.7253 24.2744C58.7409 24.29 58.7497 24.3112 58.7497 24.3333V40.3382L55.9139 37.5025C55.5388 37.1274 55.0301 36.9167 54.4997 36.9167H39.9163C39.8942 36.9167 39.873 36.9079 39.8574 36.8923C39.8418 36.8766 39.833 36.8554 39.833 36.8333V24.3333C39.833 24.3112 39.8418 24.29 39.8574 24.2744ZM39.9163 20.25C38.8334 20.25 37.7948 20.6802 37.029 21.446C36.2632 22.2118 35.833 23.2504 35.833 24.3333V36.8333C35.833 37.9163 36.2632 38.9549 37.029 39.7207C37.7948 40.4865 38.8334 40.9167 39.9163 40.9167H53.6712L59.3355 46.5809C59.9075 47.1529 60.7677 47.324 61.515 47.0144C62.2624 46.7049 62.7497 45.9756 62.7497 45.1667V24.3333C62.7497 23.2504 62.3195 22.2118 61.5537 21.446C60.7879 20.6802 59.7493 20.25 58.6663 20.25H39.9163ZM25.2744 38.8577C25.29 38.842 25.3112 38.8333 25.3333 38.8333H29.5C30.6046 38.8333 31.5 37.9378 31.5 36.8333C31.5 35.7287 30.6046 34.8333 29.5 34.8333H25.3333C24.2504 34.8333 23.2118 35.2635 22.446 36.0292C21.6802 36.795 21.25 37.8336 21.25 38.9166V59.7499C21.25 60.5588 21.7373 61.2881 22.4846 61.5977C23.232 61.9072 24.0922 61.7361 24.6642 61.1641L30.3284 55.4999H44.0833C45.1663 55.4999 46.2049 55.0697 46.9707 54.3039C47.7365 53.5382 48.1667 52.4995 48.1667 51.4166V47.2499C48.1667 46.1453 47.2712 45.2499 46.1667 45.2499C45.0621 45.2499 44.1667 46.1453 44.1667 47.2499V51.4166C44.1667 51.4387 44.1579 51.4599 44.1423 51.4755C44.1266 51.4911 44.1054 51.4999 44.0833 51.4999H29.5C28.9696 51.4999 28.4609 51.7106 28.0858 52.0857L25.25 54.9215V38.9166C25.25 38.8945 25.2588 38.8733 25.2744 38.8577Z" fill="url(#paint1_linear_49_774)"/>
<defs>
<linearGradient id="paint0_linear_49_774" x1="0.500002" y1="3.41667" x2="62.9336" y2="90.4896" gradientUnits="userSpaceOnUse">
<stop stop-color="#F1B2A8"/>
<stop offset="0.48" stop-color="#EC57A8"/>
<stop offset="1" stop-color="#5B5AF7"/>
</linearGradient>
<linearGradient id="paint1_linear_49_774" x1="30" y1="26" x2="50.5" y2="59" gradientUnits="userSpaceOnUse">
<stop stop-color="#F1B2A8"/>
<stop offset="0.47" stop-color="#EC57A8"/>
<stop offset="1" stop-color="#5B5AF7"/>
</linearGradient>
</defs>
</svg>
