<svg width="160" height="36" viewBox="0 0 160 36" fill="none" xmlns="http://www.w3.org/2000/svg">
<path d="M31.3278 16.7787V18.9033C31.3278 19.9405 32.1534 20.7904 33.1902 20.8549V20.8644H49.3406V24.6337H32.7006C29.483 24.6337 26.875 22.0683 26.875 18.9033V11.8384C26.875 8.67339 29.483 6.10803 32.7006 6.10803H43.9886C47.2062 6.10803 49.8142 8.67339 49.8142 11.8384V15.4802C49.8142 16.1963 49.2238 16.7771 48.4958 16.7771H31.3278V13.7758H45.0926C45.2654 13.7758 45.4062 13.6373 45.4062 13.4673V11.8384C45.4062 10.7572 44.515 9.88052 43.4158 9.88052H33.3182C32.219 9.88052 31.3278 10.7572 31.3278 11.8384V13.7774V16.7787Z" fill="white"/>
<path d="M75.6511 26.7709V15.3684H75.6479V11.8399C75.6479 8.67329 73.0447 6.11108 69.8239 6.11108H57.8031C54.5839 6.11108 51.9727 8.67172 51.9727 11.8399V18.9032C51.9727 22.0667 54.5839 24.632 57.8031 24.632H71.1967V31.1509H78.0911V26.7709H75.6511ZM71.1951 20.8658H58.2895V20.8548C57.2511 20.7903 56.4271 19.9388 56.4271 18.9032V11.8399C56.4271 10.7571 57.3183 9.87728 58.4191 9.87728H69.2079C70.3039 9.87728 71.1951 10.7571 71.1951 11.8399V20.8658Z" fill="white"/>
<path d="M15.7633 6.10803C8.13932 6.10803 4.32812 9.85534 4.32812 17.3515V24.6274H8.78413V18.3793C8.78413 13.1305 11.4497 10.5038 16.7905 10.5038H24.6209V6.10803H15.7633Z" fill="white"/>
<path d="M155.38 7.57484L150.995 4.90246C150.644 4.73721 150.24 4.98273 150.24 5.3636V6.11275H135.411C131.694 6.11275 129.726 8.04857 129.726 11.703C129.726 15.3591 131.694 17.2949 135.411 17.2949H144.568C145.716 17.2949 146.248 17.7182 146.329 18.7381V18.8121C146.355 19.0088 146.366 19.2118 146.355 19.4022C146.336 20.2191 145.656 20.8643 144.825 20.8643H127.228C127.454 20.2505 127.579 19.5927 127.579 18.8986V18.0566V11.8399C127.579 8.67024 124.968 6.11432 121.739 6.11432H109.721C106.504 6.11432 103.9 8.67024 103.9 11.8399V15.3669H103.894V20.8659H101.42C101.644 20.2521 101.771 19.5943 101.771 18.9002V18.0582V11.8399C101.771 8.67653 99.1595 6.11432 95.9435 6.11432H83.9131C80.6955 6.11432 78.0923 8.67024 78.0923 11.8399V15.3669H78.0859V19.152C78.0859 22.1754 80.5787 24.6321 83.6571 24.6321H103.896V29.8242H108.355V24.6321H144.571C148.288 24.6321 150.256 22.6963 150.256 19.0355C150.256 15.3795 148.288 13.45 144.571 13.45H135.414C134.152 13.45 133.64 12.9464 133.64 11.7046C133.64 10.4628 134.152 9.95921 135.414 9.95921H150.24V10.7084C150.24 11.0892 150.646 11.3347 150.995 11.1632L155.38 8.49711C155.768 8.30668 155.768 7.76528 155.38 7.57484ZM84.5611 20.8659C83.4427 20.8659 82.5435 19.9751 82.5435 18.875V11.8399C82.5435 10.7587 83.4363 9.88052 84.5355 9.88052H95.3163C96.4155 9.88052 97.3083 10.7524 97.3083 11.8352V18.0598V18.9018C97.3083 19.9405 96.4779 20.7935 95.4475 20.8549V20.8675H84.5611V20.8659ZM108.353 20.8659V11.8399C108.353 10.7587 109.24 9.88052 110.339 9.88052H121.126C122.232 9.88052 123.118 10.7587 123.118 11.8399V18.0582V18.9002C123.118 19.9389 122.288 20.7919 121.257 20.8533V20.8659H108.353Z" fill="url(#paint0_linear_49_474)"/>
<path opacity="0.3" d="M101.769 18.0582V18.9002C101.769 19.5943 101.644 20.2522 101.418 20.866H95.4473V20.8534C96.4777 20.792 97.3081 19.9374 97.3081 18.9002V18.0582H101.769Z" fill="url(#paint1_linear_49_474)"/>
<path opacity="0.3" d="M127.579 18.0582V18.9002C127.579 19.5943 127.455 20.2522 127.229 20.866H121.258V20.8534C122.288 20.792 123.119 19.9374 123.119 18.9002V18.0582H127.579Z" fill="url(#paint2_linear_49_474)"/>
<defs>
<linearGradient id="paint0_linear_49_474" x1="155.052" y1="17.75" x2="78.2605" y2="16.567" gradientUnits="userSpaceOnUse">
<stop stop-color="#F1B2A8"/>
<stop offset="0.5321" stop-color="#EC57A8"/>
<stop offset="1" stop-color="#5B5AF7"/>
</linearGradient>
<linearGradient id="paint1_linear_49_474" x1="155.013" y1="20.3022" x2="78.2209" y2="19.1192" gradientUnits="userSpaceOnUse">
<stop stop-color="#F1B2A8"/>
<stop offset="0.5321" stop-color="#EC57A8"/>
<stop offset="1" stop-color="#5B5AF7"/>
</linearGradient>
<linearGradient id="paint2_linear_49_474" x1="155.02" y1="19.9175" x2="78.2278" y2="18.7346" gradientUnits="userSpaceOnUse">
<stop stop-color="#F1B2A8"/>
<stop offset="0.5321" stop-color="#EC57A8"/>
<stop offset="1" stop-color="#5B5AF7"/>
</linearGradient>
</defs>
</svg>
