<svg width="83" height="82" viewBox="0 0 83 82" fill="none" xmlns="http://www.w3.org/2000/svg">
<rect x="2" y="1.5" width="79" height="79" rx="22.5" fill="#2C2C2C"/>
<rect x="2" y="1.5" width="79" height="79" rx="22.5" stroke="url(#paint0_linear_49_728)" stroke-width="3"/>
<path fill-rule="evenodd" clip-rule="evenodd" d="M35.7503 20.25C33.0098 20.25 30.3814 21.3387 28.4436 23.2766C26.5057 25.2144 25.417 27.8428 25.417 30.5833C25.417 33.3239 26.5057 35.9522 28.4436 37.8901C30.3814 39.828 33.0098 40.9167 35.7503 40.9167C38.4909 40.9167 41.1192 39.828 43.0571 37.8901C44.995 35.9522 46.0837 33.3239 46.0837 30.5833C46.0837 27.8428 44.995 25.2144 43.0571 23.2766C41.1192 21.3387 38.4909 20.25 35.7503 20.25ZM31.272 26.105C32.4597 24.9173 34.0706 24.25 35.7503 24.25C37.43 24.25 39.0409 24.9173 40.2287 26.105C41.4164 27.2927 42.0837 28.9036 42.0837 30.5833C42.0837 32.263 41.4164 33.8739 40.2287 35.0617C39.0409 36.2494 37.43 36.9167 35.7503 36.9167C34.0706 36.9167 32.4597 36.2494 31.272 35.0617C30.0843 33.8739 29.417 32.263 29.417 30.5833C29.417 28.9036 30.0843 27.2927 31.272 26.105ZM27.105 51.105C28.2927 49.9173 29.9036 49.25 31.5833 49.25H39.9167C41.5964 49.25 43.2073 49.9173 44.395 51.105C45.5827 52.2927 46.25 53.9036 46.25 55.5833V59.75C46.25 60.8546 47.1454 61.75 48.25 61.75C49.3546 61.75 50.25 60.8546 50.25 59.75V55.5833C50.25 52.8428 49.1613 50.2144 47.2234 48.2766C45.2856 46.3387 42.6572 45.25 39.9167 45.25H31.5833C28.8428 45.25 26.2144 46.3387 24.2766 48.2766C22.3387 50.2144 21.25 52.8428 21.25 55.5833V59.75C21.25 60.8546 22.1454 61.75 23.25 61.75C24.3546 61.75 25.25 60.8546 25.25 59.75V55.5833C25.25 53.9036 25.9173 52.2927 27.105 51.105ZM48.396 22.0247C48.67 20.9546 49.7595 20.3093 50.8296 20.5832C53.0523 21.1524 55.0224 22.4451 56.4293 24.2575C57.8362 26.07 58.5998 28.2992 58.5998 30.5937C58.5998 32.8881 57.8362 35.1173 56.4293 36.9298C55.0224 38.7423 53.0523 40.035 50.8296 40.6041C49.7595 40.8781 48.67 40.2327 48.396 39.1627C48.122 38.0926 48.7674 37.0031 49.8374 36.7291C51.1997 36.3803 52.4072 35.588 53.2695 34.4771C54.1318 33.3662 54.5998 31.9999 54.5998 30.5937C54.5998 29.1874 54.1318 27.8211 53.2695 26.7102C52.4072 25.5994 51.1997 24.8071 49.8374 24.4582C48.7674 24.1843 48.122 23.0947 48.396 22.0247ZM55.0005 45.626C53.931 45.3499 52.8401 45.993 52.564 47.0625C52.2879 48.132 52.931 49.2229 54.0005 49.499C55.354 49.8484 56.5538 50.6358 57.413 51.7385C58.2711 52.8397 58.7413 54.1936 58.7505 55.5895V59.75C58.7505 60.8546 59.6459 61.75 60.7505 61.75C61.8551 61.75 62.7505 60.8546 62.7505 59.75L62.7505 55.5833L62.7505 55.5718C62.7373 53.2912 61.9701 51.0789 60.5682 49.2799C59.1664 47.4808 57.2087 46.1961 55.0005 45.626Z" fill="url(#paint1_linear_49_728)"/>
<defs>
<linearGradient id="paint0_linear_49_728" x1="0.500002" y1="3.41667" x2="62.9336" y2="90.4896" gradientUnits="userSpaceOnUse">
<stop stop-color="#F1B2A8"/>
<stop offset="0.48" stop-color="#EC57A8"/>
<stop offset="1" stop-color="#5B5AF7"/>
</linearGradient>
<linearGradient id="paint1_linear_49_728" x1="28" y1="24" x2="59" y2="62" gradientUnits="userSpaceOnUse">
<stop stop-color="#F1B2A8"/>
<stop offset="0.48" stop-color="#EC57A8"/>
<stop offset="1" stop-color="#5B5AF7"/>
</linearGradient>
</defs>
</svg>
