<svg width="83" height="82" viewBox="0 0 83 82" fill="none" xmlns="http://www.w3.org/2000/svg">
<rect x="2" y="1.5" width="79" height="79" rx="22.5" fill="#2C2C2C"/>
<rect x="2" y="1.5" width="79" height="79" rx="22.5" stroke="url(#paint0_linear_49_783)" stroke-width="3"/>
<path fill-rule="evenodd" clip-rule="evenodd" d="M42 20.25C44.9515 20.2492 47.8693 20.8782 50.5583 22.095C53.2476 23.3119 55.6462 25.0886 57.5939 27.3065C59.5416 29.5244 60.9937 32.1324 61.853 34.9563C62.7123 37.7802 62.9591 40.755 62.5769 43.6819C62.4339 44.7771 61.4301 45.5491 60.3348 45.4061C59.2395 45.2631 58.4676 44.2592 58.6106 43.164C58.9191 40.8014 58.7198 38.4002 58.0262 36.1208C57.3326 33.8414 56.1605 31.7362 54.5883 29.9459C53.0161 28.1557 51.08 26.7215 48.9093 25.7393C46.7386 24.757 44.3832 24.2493 42.0006 24.25L42 24.25C37.5576 24.25 33.2972 26.0147 30.156 29.156C27.0147 32.2972 25.25 36.5576 25.25 41C25.25 45.4424 27.0147 49.7028 30.156 52.844C33.2972 55.9853 37.5576 57.75 42 57.75C43.1046 57.75 44 58.6454 44 59.75C44 60.8546 43.1046 61.75 42 61.75C36.4968 61.75 31.2189 59.5638 27.3275 55.6725C23.4362 51.7811 21.25 46.5032 21.25 41C21.25 35.4968 23.4362 30.2189 27.3275 26.3275C31.2188 22.4363 36.4964 20.2502 41.9994 20.25H42ZM33.75 36.8333C33.75 35.7287 34.6454 34.8333 35.75 34.8333H35.7708C36.8754 34.8333 37.7708 35.7287 37.7708 36.8333C37.7708 37.9378 36.8754 38.8333 35.7708 38.8333H35.75C34.6454 38.8333 33.75 37.9378 33.75 36.8333ZM48.25 34.8333C47.1454 34.8333 46.25 35.7287 46.25 36.8333C46.25 37.9378 47.1454 38.8333 48.25 38.8333H48.2708C49.3754 38.8333 50.2708 37.9378 50.2708 36.8333C50.2708 35.7287 49.3754 34.8333 48.2708 34.8333H48.25ZM35.3583 45.8555C36.1284 45.0637 37.3947 45.0462 38.1865 45.8163C39.1727 46.7756 40.547 47.3333 42.0003 47.3333C43.4537 47.3333 44.8279 46.7756 45.8142 45.8163C46.606 45.0462 47.8722 45.0637 48.6423 45.8555C49.4125 46.6473 49.3949 47.9135 48.6031 48.6837C46.8477 50.391 44.4637 51.3333 42.0003 51.3333C39.537 51.3333 37.1529 50.391 35.3975 48.6837C34.6057 47.9135 34.5882 46.6473 35.3583 45.8555ZM62.1642 52.831C62.9453 52.0499 62.9453 50.7836 62.1642 50.0025C61.3832 49.2215 60.1168 49.2215 59.3358 50.0025L52.4167 56.9217L49.6642 54.1692C48.8832 53.3882 47.6168 53.3882 46.8358 54.1692C46.0547 54.9502 46.0547 56.2166 46.8358 56.9976L51.0025 61.1643C51.7835 61.9453 53.0498 61.9453 53.8309 61.1643L62.1642 52.831Z" fill="url(#paint1_linear_49_783)"/>
<defs>
<linearGradient id="paint0_linear_49_783" x1="0.500002" y1="3.41667" x2="62.9336" y2="90.4896" gradientUnits="userSpaceOnUse">
<stop stop-color="#F1B2A8"/>
<stop offset="0.48" stop-color="#EC57A8"/>
<stop offset="1" stop-color="#5B5AF7"/>
</linearGradient>
<linearGradient id="paint1_linear_49_783" x1="32.5" y1="24" x2="48" y2="62" gradientUnits="userSpaceOnUse">
<stop stop-color="#F1B2A8"/>
<stop offset="0.475" stop-color="#EC57A8"/>
<stop offset="1" stop-color="#5B5AF7"/>
</linearGradient>
</defs>
</svg>
