<svg width="83" height="82" viewBox="0 0 83 82" fill="none" xmlns="http://www.w3.org/2000/svg">
<rect x="2" y="1.5" width="79" height="79" rx="22.5" fill="#2C2C2C"/>
<rect x="2" y="1.5" width="79" height="79" rx="22.5" stroke="url(#paint0_linear_49_749)" stroke-width="3"/>
<path fill-rule="evenodd" clip-rule="evenodd" d="M39.0614 20.3287C39.9585 19.8234 40.9707 19.5579 42.0003 19.5579C43.0299 19.5579 44.0421 19.8234 44.9391 20.3287C45.8361 20.8341 46.5877 21.5622 47.1212 22.4428L47.1266 22.4516L47.1265 22.4516L64.014 50.6516L64.0307 50.6801C64.5527 51.5853 64.8287 52.6113 64.8313 53.6562C64.8339 54.7011 64.563 55.7285 64.0456 56.6363C63.5281 57.544 62.7821 58.3006 61.8817 58.8307C60.9812 59.3609 59.9577 59.6461 58.9129 59.6582L58.8898 59.6583H25.1107L25.0882 59.6582C24.0429 59.6465 23.0189 59.3612 22.118 58.8309C21.2172 58.3006 20.4709 57.5437 19.9533 56.6355C19.4357 55.7272 19.165 54.6993 19.168 53.6539C19.171 52.6086 19.4476 51.5822 19.9704 50.6769L19.9865 50.6494L36.8413 22.5082C36.8536 22.4862 36.8662 22.4644 36.8793 22.4428C37.4128 21.5622 38.1644 20.8341 39.0614 20.3287ZM42.0003 23.5579C41.6585 23.5579 41.3225 23.646 41.0247 23.8137C40.7402 23.974 40.4997 24.2019 40.3244 24.4769C40.3182 24.4876 40.312 24.4983 40.3056 24.5089L23.4277 52.6887C23.2585 52.9864 23.169 53.3228 23.168 53.6654C23.167 54.0124 23.2569 54.3536 23.4287 54.6551C23.6005 54.9566 23.8482 55.2078 24.1472 55.3839C24.4435 55.5583 24.7799 55.6528 25.1236 55.6583H58.8763C59.2198 55.6527 59.5561 55.5581 59.8522 55.3838C60.1511 55.2078 60.3987 54.9567 60.5705 54.6553C60.7423 54.354 60.8322 54.013 60.8313 53.6661C60.8305 53.3239 60.7412 52.9877 60.5724 52.6901L43.7001 24.5155L43.6979 24.5118C43.5209 24.2212 43.2723 23.9808 42.9758 23.8137C42.678 23.646 42.342 23.5579 42.0003 23.5579ZM42 32.75C43.1046 32.75 44 33.6454 44 34.75V43.0833C44 44.1879 43.1046 45.0833 42 45.0833C40.8954 45.0833 40 44.1879 40 43.0833V34.75C40 33.6454 40.8954 32.75 42 32.75ZM42 47.3333C40.8954 47.3333 40 48.2287 40 49.3333C40 50.4378 40.8954 51.3333 42 51.3333H42.0208C43.1254 51.3333 44.0208 50.4378 44.0208 49.3333C44.0208 48.2287 43.1254 47.3333 42.0208 47.3333H42Z" fill="url(#paint1_linear_49_749)"/>
<defs>
<linearGradient id="paint0_linear_49_749" x1="0.500002" y1="3.41667" x2="62.9336" y2="90.4896" gradientUnits="userSpaceOnUse">
<stop stop-color="#F1B2A8"/>
<stop offset="0.48" stop-color="#EC57A8"/>
<stop offset="1" stop-color="#5B5AF7"/>
</linearGradient>
<linearGradient id="paint1_linear_49_749" x1="36.5" y1="20" x2="59" y2="60" gradientUnits="userSpaceOnUse">
<stop stop-color="#F1B2A8"/>
<stop offset="0.48" stop-color="#EC57A8"/>
<stop offset="1" stop-color="#5B5AF7"/>
</linearGradient>
</defs>
</svg>
