<svg width="83" height="82" viewBox="0 0 83 82" fill="none" xmlns="http://www.w3.org/2000/svg">
<rect x="2" y="1.5" width="79" height="79" rx="22.5" fill="#2C2C2C"/>
<rect x="2" y="1.5" width="79" height="79" rx="22.5" stroke="url(#paint0_linear_49_759)" stroke-width="3"/>
<g clip-path="url(#clip0_49_759)">
<path fill-rule="evenodd" clip-rule="evenodd" d="M36.3006 24.8846C36.7069 24.4783 37.258 24.25 37.8327 24.25H41.9993C42.574 24.25 43.1251 24.4783 43.5314 24.8846C43.9377 25.2909 44.166 25.842 44.166 26.4167C44.166 26.9913 43.9377 27.5424 43.5314 27.9487C43.1251 28.3551 42.574 28.5833 41.9993 28.5833H37.8327C37.258 28.5833 36.7069 28.3551 36.3006 27.9487C35.8943 27.5424 35.666 26.9913 35.666 26.4167C35.666 25.842 35.8943 25.2909 36.3006 24.8846ZM37.8327 20.25C36.1972 20.25 34.6287 20.8997 33.4722 22.0562C32.8015 22.7269 32.3012 23.5362 31.9993 24.4167H29.4987C27.8632 24.4167 26.2947 25.0664 25.1382 26.2229C23.9817 27.3794 23.332 28.9479 23.332 30.5834V55.5834C23.332 57.2189 23.9817 58.7874 25.1382 59.9439C26.2947 61.1004 27.8632 61.7501 29.4987 61.7501H41.3674C42.472 61.7501 43.3674 60.8546 43.3674 59.7501C43.3674 58.6455 42.472 57.7501 41.3674 57.7501H29.4987C28.9241 57.7501 28.373 57.5218 27.9666 57.1155C27.5603 56.7092 27.332 56.1581 27.332 55.5834V30.5834C27.332 30.0088 27.5603 29.4577 27.9666 29.0513C28.373 28.645 28.9241 28.4167 29.4987 28.4167H31.9994C32.3013 29.2973 32.8015 30.1065 33.4722 30.7772C34.6287 31.9336 36.1972 32.5833 37.8327 32.5833H41.9993C43.6348 32.5833 45.2034 31.9336 46.3598 30.7772C47.0305 30.1065 47.5307 29.2973 47.8327 28.4167H50.3327C50.9073 28.4167 51.4584 28.645 51.8647 29.0513C52.2711 29.4577 52.4993 30.0088 52.4993 30.5834V41.0001C52.4993 42.1046 53.3948 43.0001 54.4993 43.0001C55.6039 43.0001 56.4993 42.1046 56.4993 41.0001V30.5834C56.4993 28.9479 55.8496 27.3794 54.6932 26.2229C53.5367 25.0664 51.9682 24.4167 50.3327 24.4167H47.8327C47.5308 23.5362 47.0305 22.7269 46.3598 22.0562C45.2034 20.8997 43.6348 20.25 41.9993 20.25H37.8327ZM31.666 38.9167C31.666 37.8122 32.5614 36.9167 33.666 36.9167H41.9993C43.1039 36.9167 43.9993 37.8122 43.9993 38.9167C43.9993 40.0213 43.1039 40.9167 41.9993 40.9167H33.666C32.5614 40.9167 31.666 40.0213 31.666 38.9167ZM33.666 45.25C32.5614 45.25 31.666 46.1454 31.666 47.25C31.666 48.3546 32.5614 49.25 33.666 49.25H39.916C41.0206 49.25 41.916 48.3546 41.916 47.25C41.916 46.1454 41.0206 45.25 39.916 45.25H33.666ZM46.2773 47.3613C47.6291 46.0094 49.4626 45.25 51.3743 45.25C53.2861 45.25 55.1196 46.0094 56.4714 47.3613C57.8232 48.7131 58.5827 50.5466 58.5827 52.4583C58.5827 53.6873 58.2688 54.884 57.6855 55.9411L62.1636 60.4191C62.9446 61.2002 62.9446 62.4665 62.1636 63.2475C61.3825 64.0286 60.1162 64.0286 59.3351 63.2475L54.8571 58.7695C53.8 59.3528 52.6033 59.6667 51.3743 59.6667C49.4626 59.6667 47.6291 58.9072 46.2773 57.5554C44.9255 56.2036 44.166 54.3701 44.166 52.4583C44.166 50.5466 44.9255 48.7131 46.2773 47.3613ZM51.3743 49.25C50.5234 49.25 49.7074 49.588 49.1057 50.1897C48.504 50.7914 48.166 51.6074 48.166 52.4583C48.166 53.3092 48.504 54.1253 49.1057 54.727C49.7074 55.3286 50.5234 55.6667 51.3743 55.6667C52.2253 55.6667 53.0413 55.3286 53.643 54.727C54.2447 54.1253 54.5827 53.3092 54.5827 52.4583C54.5827 51.6074 54.2447 50.7914 53.643 50.1897C53.0413 49.588 52.2253 49.25 51.3743 49.25Z" fill="url(#paint1_linear_49_759)"/>
</g>
<defs>
<linearGradient id="paint0_linear_49_759" x1="0.500002" y1="3.41667" x2="62.9336" y2="90.4896" gradientUnits="userSpaceOnUse">
<stop stop-color="#F1B2A8"/>
<stop offset="0.48" stop-color="#EC57A8"/>
<stop offset="1" stop-color="#5B5AF7"/>
</linearGradient>
<linearGradient id="paint1_linear_49_759" x1="27.499" y1="24" x2="58.499" y2="64" gradientUnits="userSpaceOnUse">
<stop stop-color="#F1B2A8"/>
<stop offset="0.475" stop-color="#EC57A8"/>
<stop offset="1" stop-color="#5B5AF7"/>
</linearGradient>
<clipPath id="clip0_49_759">
<rect width="50" height="50" fill="white" transform="translate(17 16)"/>
</clipPath>
</defs>
</svg>
