<svg width="48" height="48" viewBox="0 0 48 48" fill="none" xmlns="http://www.w3.org/2000/svg">
<g clip-path="url(#clip0_49_721)">
<path fill-rule="evenodd" clip-rule="evenodd" d="M24 4C21.3736 4 18.7728 4.51732 16.3463 5.52241C13.9198 6.5275 11.715 8.00069 9.85786 9.85786C8.00069 11.715 6.5275 13.9198 5.52241 16.3463C4.51732 18.7728 4 21.3736 4 24C4 26.6264 4.51732 29.2272 5.52241 31.6537C6.5275 34.0802 8.00069 36.285 9.85786 38.1421C11.715 39.9993 13.9198 41.4725 16.3463 42.4776C18.7728 43.4827 21.3736 44 24 44C26.6264 44 29.2272 43.4827 31.6537 42.4776C34.0802 41.4725 36.285 39.9993 38.1421 38.1421C39.9993 36.285 41.4725 34.0802 42.4776 31.6537C43.4827 29.2272 44 26.6264 44 24C44 21.3736 43.4827 18.7728 42.4776 16.3463C41.4725 13.9198 39.9993 11.715 38.1421 9.85786C36.285 8.00069 34.0802 6.5275 31.6537 5.52241C29.2272 4.51732 26.6264 4 24 4ZM17.8771 9.21793C19.8183 8.41385 21.8988 8 24 8C26.1012 8 28.1817 8.41385 30.1229 9.21793C32.0641 10.022 33.828 11.2006 35.3137 12.6863C36.7994 14.172 37.978 15.9359 38.7821 17.8771C39.5861 19.8183 40 21.8988 40 24C40 26.1012 39.5861 28.1817 38.7821 30.1229C37.978 32.0641 36.7994 33.828 35.3137 35.3137C33.828 36.7994 32.0641 37.978 30.1229 38.7821C28.1817 39.5861 26.1012 40 24 40C21.8988 40 19.8183 39.5861 17.8771 38.7821C15.9359 37.978 14.172 36.7994 12.6863 35.3137C11.2006 33.828 10.022 32.0641 9.21793 30.1229C8.41385 28.1817 8 26.1012 8 24C8 21.8988 8.41385 19.8183 9.21793 17.8771C10.022 15.9359 11.2006 14.172 12.6863 12.6863C14.172 11.2006 15.9359 10.022 17.8771 9.21793ZM15.5147 15.5147C17.7652 13.2643 20.8174 12 24 12C27.1826 12 30.2348 13.2643 32.4853 15.5147C34.7357 17.7652 36 20.8174 36 24C36 27.1826 34.7357 30.2348 32.4853 32.4853C30.2348 34.7357 27.1826 36 24 36C20.8174 36 17.7652 34.7357 15.5147 32.4853C13.2643 30.2348 12 27.1826 12 24C12 20.8174 13.2643 17.7652 15.5147 15.5147ZM24 16C21.8783 16 19.8434 16.8429 18.3431 18.3431C16.8429 19.8434 16 21.8783 16 24C16 26.1217 16.8429 28.1566 18.3431 29.6569C19.8434 31.1571 21.8783 32 24 32C26.1217 32 28.1566 31.1571 29.6569 29.6569C31.1571 28.1566 32 26.1217 32 24C32 21.8783 31.1571 19.8434 29.6569 18.3431C28.1566 16.8429 26.1217 16 24 16ZM21.1716 21.1716C21.9217 20.4214 22.9391 20 24 20C25.0609 20 26.0783 20.4214 26.8284 21.1716C27.5786 21.9217 28 22.9391 28 24C28 25.0609 27.5786 26.0783 26.8284 26.8284C26.0783 27.5786 25.0609 28 24 28C22.9391 28 21.9217 27.5786 21.1716 26.8284C20.4214 26.0783 20 25.0609 20 24C20 22.9391 20.4214 21.9217 21.1716 21.1716Z" fill="url(#paint0_linear_49_721)"/>
</g>
<defs>
<linearGradient id="paint0_linear_49_721" x1="4" y1="24" x2="44" y2="24" gradientUnits="userSpaceOnUse">
<stop stop-color="#F1B2A8"/>
<stop offset="0.475" stop-color="#EC57A8"/>
<stop offset="1" stop-color="#5B5AF7"/>
</linearGradient>
<clipPath id="clip0_49_721">
<rect width="48" height="48" fill="white"/>
</clipPath>
</defs>
</svg>
