<svg width="48" height="48" viewBox="0 0 48 48" fill="none" xmlns="http://www.w3.org/2000/svg">
<path fill-rule="evenodd" clip-rule="evenodd" d="M24.5549 4.88252C20.4804 3.70583 15.5196 3.70583 11.4451 4.88252C9.40095 5.47286 7.61485 6.34857 6.29886 7.488C4.9838 8.62661 4 10.1653 4 12V22V32C4 33.5693 4.7194 34.7961 5.72152 35.7223C6.66155 36.5911 7.9068 37.2539 9.18249 37.8253C10.1906 38.2768 11.3738 37.8256 11.8253 36.8175C12.2768 35.8094 11.8256 34.6262 10.8175 34.1747C9.6372 33.6461 8.88245 33.1969 8.43648 32.7847C8.0526 32.4299 8 32.2067 8 32V27.2573C8.38552 27.458 8.78251 27.6461 9.18249 27.8253C10.1906 28.2768 11.3738 27.8256 11.8253 26.8175C12.2768 25.8094 11.8256 24.6262 10.8175 24.1747C9.6372 23.6461 8.88245 23.1969 8.43648 22.7847C8.0526 22.4299 8 22.2067 8 22V17.7006C9.01635 18.2785 10.1814 18.7525 11.4451 19.1175C15.5196 20.2942 20.4804 20.2942 24.5549 19.1175C26.599 18.5271 28.3851 17.6514 29.7011 16.512C31.0162 15.3734 32 13.8347 32 12C32 10.1653 31.0162 8.62661 29.7011 7.488C28.3851 6.34857 26.599 5.47286 24.5549 4.88252ZM8.91714 13.488C8.1602 12.8326 8 12.3093 8 12C8 11.6907 8.1602 11.1674 8.91714 10.512C9.67315 9.85743 10.887 9.20714 12.5549 8.72548C15.9044 7.75817 20.0956 7.75817 23.4451 8.72548C25.113 9.20714 26.3269 9.85743 27.0829 10.512C27.8398 11.1674 28 11.6907 28 12C28 12.3093 27.8398 12.8326 27.0829 13.488C26.3269 14.1426 25.113 14.7929 23.4451 15.2745C20.0956 16.2418 15.9044 16.2418 12.5549 15.2745C10.887 14.7929 9.67315 14.1426 8.91714 13.488ZM20.6201 21.9684C23.1239 20.7165 26.4429 20 30 20C33.5571 20 36.8761 20.7165 39.3799 21.9684C41.7642 23.1605 44 25.1775 44 28V36C44 38.8217 41.7639 40.8386 39.3801 42.0308C36.8764 43.2829 33.5573 44 30 44C26.4427 44 23.1236 43.2829 20.6199 42.0308C18.2361 40.8386 16 38.8217 16 36V28C16 25.1775 18.2358 23.1605 20.6201 21.9684ZM40 36V33.7003C39.7954 33.817 39.5882 33.9275 39.3799 34.0316C36.8761 35.2835 33.5571 36 30 36C26.4429 36 23.1239 35.2835 20.6201 34.0316C20.4118 33.9275 20.2046 33.817 20 33.7003V36C20 36.4903 20.4499 37.4734 22.4091 38.4532C24.2484 39.3731 26.9293 40 30 40C33.0707 40 35.7516 39.3731 37.5909 38.4532C39.5501 37.4734 40 36.4903 40 36ZM22.4089 30.4539C20.4502 29.4745 20 28.4915 20 28C20 27.5085 20.4502 26.5255 22.4089 25.5461C24.2481 24.6265 26.9291 24 30 24C33.0709 24 35.7519 24.6265 37.5911 25.5461C39.5498 26.5255 40 27.5085 40 28C40 28.4915 39.5498 29.4745 37.5911 30.4539C35.7519 31.3735 33.0709 32 30 32C26.9291 32 24.2481 31.3735 22.4089 30.4539Z" fill="url(#paint0_linear_49_711)"/>
<defs>
<linearGradient id="paint0_linear_49_711" x1="4" y1="24" x2="44" y2="24" gradientUnits="userSpaceOnUse">
<stop stop-color="#F1B2A8"/>
<stop offset="0.475" stop-color="#EC57A8"/>
<stop offset="1" stop-color="#5B5AF7"/>
</linearGradient>
</defs>
</svg>
