<svg width="83" height="82" viewBox="0 0 83 82" fill="none" xmlns="http://www.w3.org/2000/svg">
<rect x="2" y="1.5" width="79" height="79" rx="22.5" fill="#2C2C2C"/>
<rect x="2" y="1.5" width="79" height="79" rx="22.5" stroke="url(#paint0_linear_49_739)" stroke-width="3"/>
<path fill-rule="evenodd" clip-rule="evenodd" d="M51.3094 21.6271C52.2288 21.0148 53.4704 21.2638 54.0826 22.1832L63.6286 36.5177C64.4244 37.6783 64.8342 39.0843 64.8342 40.5001C64.8342 41.9158 64.4244 43.3218 63.6287 44.4823L54.0826 58.817C53.4704 59.7363 52.2288 59.9853 51.3094 59.373C50.39 58.7608 50.1411 57.5192 50.7533 56.5998L60.3075 42.253L60.3258 42.226C60.6386 41.7724 60.8342 41.1631 60.8342 40.5001C60.8342 39.837 60.6386 39.2277 60.3258 38.7741L60.3075 38.7471L50.7533 24.4003C50.1411 23.4809 50.39 22.2393 51.3094 21.6271ZM33.6499 21.2918L33.6676 21.2917C35.3997 21.2917 36.8979 22.2277 37.8545 23.5851L37.8549 23.5857L46.9403 36.487L46.9514 36.503C47.7539 37.6664 48.1672 39.0783 48.1672 40.5001C48.1672 41.9218 47.7539 43.3337 46.9514 44.4971L46.9403 44.5131L37.8598 57.4074C37.3928 58.0817 36.7863 58.6548 36.0663 59.0626C35.3408 59.4735 34.5266 59.7009 33.6853 59.7083L33.6676 59.7084C31.9355 59.7084 30.4372 58.7724 29.4806 57.415L29.4803 57.4144L20.3949 44.5131L20.3837 44.4971C19.5813 43.3337 19.168 41.9218 19.168 40.5001C19.168 39.0783 19.5813 37.6664 20.3837 36.503L20.3949 36.487L29.4753 23.5927C29.9423 22.9184 30.5489 22.3453 31.2689 21.9375C31.9944 21.5266 32.8085 21.2992 33.6499 21.2918ZM33.676 25.2918C33.5411 25.2945 33.3936 25.3311 33.2402 25.418C33.081 25.5082 32.9118 25.6554 32.7617 25.8729L32.7507 25.8888L23.6717 38.781C23.3616 39.2339 23.168 39.8403 23.168 40.5001C23.168 41.1598 23.3616 41.7663 23.6718 42.2192L32.7503 55.1108C33.0853 55.5861 33.4406 55.7054 33.6592 55.7083C33.7941 55.7056 33.9416 55.669 34.0949 55.5821C34.2541 55.492 34.4233 55.3447 34.5734 55.1272L34.5844 55.1113L43.6634 42.2192C43.9735 41.7663 44.1672 41.1598 44.1672 40.5001C44.1672 39.8403 43.9735 39.2339 43.6635 38.781L34.5848 25.8893L34.5844 25.8888C34.2496 25.4139 33.8946 25.2947 33.676 25.2918ZM45.7486 22.1832C45.1364 21.2638 43.8948 21.0148 42.9754 21.6271C42.0561 22.2393 41.8071 23.4809 42.4193 24.4003L51.9735 38.7471L51.9918 38.7741C52.3046 39.2277 52.5003 39.837 52.5003 40.5001C52.5003 41.1631 52.3046 41.7724 51.9918 42.226L51.9735 42.253L42.4193 56.5998C41.8071 57.5192 42.0561 58.7608 42.9754 59.373C43.8948 59.9853 45.1364 59.7363 45.7486 58.817L55.2947 44.4823C56.0904 43.3218 56.5003 41.9158 56.5003 40.5001C56.5003 39.0843 56.0904 37.6783 55.2946 36.5177L45.7486 22.1832Z" fill="url(#paint1_linear_49_739)"/>
<defs>
<linearGradient id="paint0_linear_49_739" x1="0.500002" y1="3.41667" x2="62.9336" y2="90.4896" gradientUnits="userSpaceOnUse">
<stop stop-color="#F1B2A8"/>
<stop offset="0.48" stop-color="#EC57A8"/>
<stop offset="1" stop-color="#5B5AF7"/>
</linearGradient>
<linearGradient id="paint1_linear_49_739" x1="29.501" y1="24.5" x2="53.501" y2="59" gradientUnits="userSpaceOnUse">
<stop stop-color="#F1B2A8"/>
<stop offset="0.49" stop-color="#EC57A8"/>
<stop offset="1" stop-color="#5B5AF7"/>
</linearGradient>
</defs>
</svg>
